{
	"asset": {
		"generator": "Blocks 2.0.1_SVR_RC5",
		"version": "1.1",
		"copyright": "Unknown"
	},
	"buffers": {
		"model": {
			"byteLength": 431304,
			"type": "arraybuffer",
			"uri": "model.bin"
		}
	},
	"accessors": {
		"accessor_position_m0-PolyGem25_-27034": {
			"bufferView": "vec3BufferView",
			"byteOffset": 0,
			"byteStride": 12,
			"componentType": 5126,
			"count": 6864,
			"max": [ 1.546503, 2.087872, 0.7852145 ],
			"min": [ 0.09237631, 1.310849, -0.2621985 ],
			"type": "VEC3"
		 },
		"accessor_normal_m0-PolyGem25_-27034": {
			"bufferView": "vec3BufferView",
			"byteOffset": 82368,
			"byteStride": 12,
			"componentType": 5126,
			"count": 6864,
			"max": [ 0.9968786, 0.9995075, 0.9994024 ],
			"min": [ -0.9968786, -0.9995074, -0.9994024 ],
			"type": "VEC3"
		 },
		"accessor_color_m0-PolyGem25_-27034": {
			"bufferView": "vec4BufferView",
			"byteOffset": 0,
			"byteStride": 16,
			"componentType": 5126,
			"count": 6864,
			"max": [ 1, 1, 1, 1 ],
			"min": [ 1, 1, 1, 1 ],
			"type": "VEC4"
		 },
		"accessor_indices_0_m0-PolyGem25_-27034": {
			"bufferView": "ushortBufferView",
			"byteOffset": 0,
			"byteStride": 0,
			"componentType": 5123,
			"count": 9792,
			"max": [ 6863 ],
			"min": [ 0 ],
			"type": "SCALAR"
		 },
		"accessor_position_m1-PolyPaper17_-28634": {
			"bufferView": "vec3BufferView",
			"byteOffset": 164736,
			"byteStride": 12,
			"componentType": 5126,
			"count": 3192,
			"max": [ 1.68316, 1.922995, 0.9093724 ],
			"min": [ 0.0134594, 1.459359, -0.3768614 ],
			"type": "VEC3"
		 },
		"accessor_normal_m1-PolyPaper17_-28634": {
			"bufferView": "vec3BufferView",
			"byteOffset": 203040,
			"byteStride": 12,
			"componentType": 5126,
			"count": 3192,
			"max": [ 0.9806044, 0.999635, 0.9938413 ],
			"min": [ -0.9806045, -0.999635, -0.9938414 ],
			"type": "VEC3"
		 },
		"accessor_color_m1-PolyPaper17_-28634": {
			"bufferView": "vec4BufferView",
			"byteOffset": 109824,
			"byteStride": 16,
			"componentType": 5126,
			"count": 3192,
			"max": [ 0.2705882, 0.3529412, 0.3921569, 1 ],
			"min": [ 0.1019608, 0.1019608, 0.1019608, 1 ],
			"type": "VEC4"
		 },
		"accessor_indices_0_m1-PolyPaper17_-28634": {
			"bufferView": "ushortBufferView",
			"byteOffset": 19584,
			"byteStride": 0,
			"componentType": 5123,
			"count": 4740,
			"max": [ 3191 ],
			"min": [ 0 ],
			"type": "SCALAR"
		 }
	},
	"bufferViews": {
		"ushortBufferView": {
			"buffer": "model",
			"byteLength": 29064,
			"byteOffset": 0,
			"target": 34963
		},
		"vec3BufferView": {
			"buffer": "model",
			"byteLength": 241344,
			"byteOffset": 29064,
			"target": 34962
		},
		"vec4BufferView": {
			"buffer": "model",
			"byteLength": 160896,
			"byteOffset": 270408,
			"target": 34962
		}
	},
	"meshes": {
		"mesh_m0-PolyGem25_-27034": {
			"name": "mesh_m0-PolyGem25_-27034",
			"primitives": [
				{
					"attributes": {
						"POSITION": "accessor_position_m0-PolyGem25_-27034",
						"NORMAL": "accessor_normal_m0-PolyGem25_-27034",
						"COLOR": "accessor_color_m0-PolyGem25_-27034"
					},
					"indices": "accessor_indices_0_m0-PolyGem25_-27034",
					"material": "material_mat25",
					"mode": 4
				}
			]
		},
		"mesh_m1-PolyPaper17_-28634": {
			"name": "mesh_m1-PolyPaper17_-28634",
			"primitives": [
				{
					"attributes": {
						"POSITION": "accessor_position_m1-PolyPaper17_-28634",
						"NORMAL": "accessor_normal_m1-PolyPaper17_-28634",
						"COLOR": "accessor_color_m1-PolyPaper17_-28634"
					},
					"indices": "accessor_indices_0_m1-PolyPaper17_-28634",
					"material": "material_mat17",
					"mode": 4
				}
			]
		}
	},
	"shaders": {
		"vertex_mat25": {
			"type": 35633,
			"uri": "https://vr.google.com/shaders/w/gemVS.glsl"
		},
		"fragment_mat25": {
			"type": 35632,
			"uri": "https://vr.google.com/shaders/w/gemFS.glsl"
		},
		"vertex_mat17": {
			"type": 35633,
			"uri": "https://vr.google.com/shaders/w/vs.glsl"
		},
		"fragment_mat17": {
			"type": 35632,
			"uri": "https://vr.google.com/shaders/w/fs.glsl"
		}
	},
	"programs": {
		"program_mat25": {
			"attributes": [
				"a_position",
				"a_normal",
				"a_color"				
			],
			"vertexShader": "vertex_mat25",
			"fragmentShader": "fragment_mat25"
		},
		"program_mat17": {
			"attributes": [
				"a_position",
				"a_normal",
				"a_color"				
			],
			"vertexShader": "vertex_mat17",
			"fragmentShader": "fragment_mat17"
		}
	},
	"techniques": {
		"technique_mat25": {
			"program": "program_mat25",
			"extras": {"gvrss" : "https://vr.google.com/shaders/w/gvrss/gem.json"},
			"parameters": {
				"position": {
					"type": 35665,
					"semantic": "POSITION"
				},
				"normal": {
					"type": 35665,
					"semantic": "NORMAL"
				},
				"color": {
					"type": 35666,
					"semantic": "COLOR"
				},
				"modelViewMatrix": {
					"type": 35676,
					"semantic": "MODELVIEW"
				},
				"projectionMatrix": {
					"type": 35676,
					"semantic": "PROJECTION"
				},
				"normalMatrix": {
					"type": 35675,
					"semantic": "MODELVIEWINVERSETRANSPOSE"
				},
				"color": {
					"type": 35666
				},
				"roughness": {
					"type": 5126
				},
				"metallic": {
					"type": 5126
				},
				"gem": {
					"type": 35678
				},
				"light0Pos": {
					"type": 35666
				},
				"light0Color": {
					"type": 35666
				},
				"light1Pos": {
					"type": 35666
				},
				"light1Color": {
					"type": 35666
				}				
			},
			"attributes": {
				"a_position": "position",
				"a_normal": "normal",
				"a_color": "color"				
			},
			"uniforms": {
				"u_modelViewMatrix": "modelViewMatrix",
				"u_projectionMatrix": "projectionMatrix",
				"u_normalMatrix": "normalMatrix",
				"u_color": "color",
				"u_roughness": "roughness",
				"u_metallic": "metallic",
				"u_gem": "gem",
				"u_light0Pos": "light0Pos",
				"u_light0Color": "light0Color",
				"u_light1Pos": "light1Pos",
				"u_light1Color": "light1Color"				
			},
			"states": {
				"enable": [
					2929,
					2884
				],
				"functions": {
					"cullFace": [1029]
				}
			}
		},
		"technique_mat17": {
			"program": "program_mat17",
			"extras": {"gvrss" : "https://vr.google.com/shaders/w/gvrss/paper.json"},
			"parameters": {
				"position": {
					"type": 35665,
					"semantic": "POSITION"
				},
				"normal": {
					"type": 35665,
					"semantic": "NORMAL"
				},
				"color": {
					"type": 35666,
					"semantic": "COLOR"
				},
				"modelViewMatrix": {
					"type": 35676,
					"semantic": "MODELVIEW"
				},
				"projectionMatrix": {
					"type": 35676,
					"semantic": "PROJECTION"
				},
				"normalMatrix": {
					"type": 35675,
					"semantic": "MODELVIEWINVERSETRANSPOSE"
				},
				"color": {
					"type": 35666
				},
				"roughness": {
					"type": 5126
				},
				"metallic": {
					"type": 5126
				},
				"light0Pos": {
					"type": 35666
				},
				"light0Color": {
					"type": 35666
				},
				"light1Pos": {
					"type": 35666
				},
				"light1Color": {
					"type": 35666
				}				
			},
			"attributes": {
				"a_position": "position",
				"a_normal": "normal",
				"a_color": "color"				
			},
			"uniforms": {
				"u_modelViewMatrix": "modelViewMatrix",
				"u_projectionMatrix": "projectionMatrix",
				"u_normalMatrix": "normalMatrix",
				"u_color": "color",
				"u_roughness": "roughness",
				"u_metallic": "metallic",
				"u_light0Pos": "light0Pos",
				"u_light0Color": "light0Color",
				"u_light1Pos": "light1Pos",
				"u_light1Color": "light1Color"				
			},
			"states": {
				"enable": [
					2929,
					2884
				],
				"functions": {
					"cullFace": [1029]
				}
			}
		}
	},
	"samplers": {
		"sampler_LINEAR_LINEAR_REPEAT": {
			"magFilter": 9729,
			"minFilter": 9987,
			"wrapS": 10497,
			"wrapT": 10497
		}
	},
	"textures": {
		"texture_mat25_gem": {
			"format": 6408,
			"internalFormat": 6408,
			"sampler": "sampler_LINEAR_LINEAR_REPEAT",
			"source": "image_mat25_gem",
			"target": 3553,
			"type": 5121
		}
	},
	"images": {
		"image_mat25_gem": {
			"uri": "https://vr.google.com/shaders/w/GemRefractions.png"
		}
	},
	"materials": {
		"material_mat25": {
			"technique": "technique_mat25",
			"values": {
				"color": [1, 1, 1, 1],
				"roughness": 0.001,
				"metallic": 0,
				"gem": "texture_mat25_gem",
				"light0Pos": [-0.02, 4.11, -0.54, 0],
				"light0Color": [0.8, 0.8, 0.8, 0],
				"light1Pos": [0.02, -4.11, 0.54, 0],
				"light1Color": [0.64, 0.64, 0.64, 0]				
			},
			"name": "material_mat25"
		},
		"material_mat17": {
			"technique": "technique_mat17",
			"values": {
				"color": [0.2705882, 0.3529412, 0.3921569, 1],
				"roughness": 0.72,
				"metallic": 0,
				"light0Pos": [-0.02, 4.11, -0.54, 0],
				"light0Color": [0.8, 0.8, 0.8, 0],
				"light1Pos": [0.02, -4.11, 0.54, 0],
				"light1Color": [0.64, 0.64, 0.64, 0]				
			},
			"name": "material_mat17"
		}
	},
	"nodes": {
		"node_MeshObject853645632-PolyGem25": {
			"name": "node_MeshObject853645632-PolyGem25",
			"meshes": [
				"mesh_m0-PolyGem25_-27034"
			],
			"matrix": [1, 0, 0, 0, 0, 1, 0, 0, 0, 0, 1, 0, 0, 0, 0, 1]
		},
		"node_MeshObject-1447972160-PolyPaper17": {
			"name": "node_MeshObject-1447972160-PolyPaper17",
			"meshes": [
				"mesh_m1-PolyPaper17_-28634"
			],
			"matrix": [1, 0, 0, 0, 0, 1, 0, 0, 0, 0, 1, 0, 0, 0, 0, 1]
		}
	},
	"scene": "defaultScene",
	"scenes": {
		"defaultScene": {
			"nodes": [
				"node_MeshObject853645632-PolyGem25",
				"node_MeshObject-1447972160-PolyPaper17"
			],
			"extras": {

			}
		}
	}
}