{
	"asset": {
		"generator": "Blocks 2.0.1_SVR_RC5",
		"version": "1.1",
		"copyright": "Unknown"
	},
	"buffers": {
		"model": {
			"byteLength": 431304,
			"type": "arraybuffer",
			"uri": "model.bin"
		}
	},
	"accessors": {
		"accessor_position_m0-PolyPaper9_-31778": {
			"bufferView": "vec3BufferView",
			"byteOffset": 0,
			"byteStride": 12,
			"componentType": 5126,
			"count": 576,
			"max": [ 0.9124165, 1.898044, 0.1625681 ],
			"min": [ 0.5243487, 1.491122, -0.0495626 ],
			"type": "VEC3"
		 },
		"accessor_normal_m0-PolyPaper9_-31778": {
			"bufferView": "vec3BufferView",
			"byteOffset": 6912,
			"byteStride": 12,
			"componentType": 5126,
			"count": 576,
			"max": [ 0.9773303, 0.9637717, 0.9938413 ],
			"min": [ -0.9773305, -0.9637716, -0.9938414 ],
			"type": "VEC3"
		 },
		"accessor_color_m0-PolyPaper9_-31778": {
			"bufferView": "vec4BufferView",
			"byteOffset": 0,
			"byteStride": 16,
			"componentType": 5126,
			"count": 576,
			"max": [ 0.5450981, 0.7647059, 0.2901961, 1 ],
			"min": [ 0.5450981, 0.7647059, 0.2901961, 1 ],
			"type": "VEC4"
		 },
		"accessor_indices_0_m0-PolyPaper9_-31778": {
			"bufferView": "ushortBufferView",
			"byteOffset": 0,
			"byteStride": 0,
			"componentType": 5123,
			"count": 864,
			"max": [ 575 ],
			"min": [ 0 ],
			"type": "SCALAR"
		 },
		"accessor_position_m1-PolyPaper9_-30888": {
			"bufferView": "vec3BufferView",
			"byteOffset": 13824,
			"byteStride": 12,
			"componentType": 5126,
			"count": 9480,
			"max": [ 1.683159, 2.087899, 0.9093376 ],
			"min": [ 0.01346414, 1.310857, -0.3768183 ],
			"type": "VEC3"
		 },
		"accessor_normal_m1-PolyPaper9_-30888": {
			"bufferView": "vec3BufferView",
			"byteOffset": 127584,
			"byteStride": 12,
			"componentType": 5126,
			"count": 9480,
			"max": [ 0.9968786, 0.999635, 0.9994024 ],
			"min": [ -0.9968786, -0.999635, -0.9994024 ],
			"type": "VEC3"
		 },
		"accessor_color_m1-PolyPaper9_-30888": {
			"bufferView": "vec4BufferView",
			"byteOffset": 9216,
			"byteStride": 16,
			"componentType": 5126,
			"count": 9480,
			"max": [ 0.5450981, 0.7647059, 0.3137255, 1 ],
			"min": [ 0.1019608, 0.1019608, 0.1019608, 1 ],
			"type": "VEC4"
		 },
		"accessor_indices_0_m1-PolyPaper9_-30888": {
			"bufferView": "ushortBufferView",
			"byteOffset": 1728,
			"byteStride": 0,
			"componentType": 5123,
			"count": 13668,
			"max": [ 9479 ],
			"min": [ 0 ],
			"type": "SCALAR"
		 }
	},
	"bufferViews": {
		"ushortBufferView": {
			"buffer": "model",
			"byteLength": 29064,
			"byteOffset": 0,
			"target": 34963
		},
		"vec3BufferView": {
			"buffer": "model",
			"byteLength": 241344,
			"byteOffset": 29064,
			"target": 34962
		},
		"vec4BufferView": {
			"buffer": "model",
			"byteLength": 160896,
			"byteOffset": 270408,
			"target": 34962
		}
	},
	"meshes": {
		"mesh_m0-PolyPaper9_-31778": {
			"name": "mesh_m0-PolyPaper9_-31778",
			"primitives": [
				{
					"attributes": {
						"POSITION": "accessor_position_m0-PolyPaper9_-31778",
						"NORMAL": "accessor_normal_m0-PolyPaper9_-31778",
						"COLOR": "accessor_color_m0-PolyPaper9_-31778"
					},
					"indices": "accessor_indices_0_m0-PolyPaper9_-31778",
					"material": "material_mat9",
					"mode": 4
				}
			]
		},
		"mesh_m1-PolyPaper9_-30888": {
			"name": "mesh_m1-PolyPaper9_-30888",
			"primitives": [
				{
					"attributes": {
						"POSITION": "accessor_position_m1-PolyPaper9_-30888",
						"NORMAL": "accessor_normal_m1-PolyPaper9_-30888",
						"COLOR": "accessor_color_m1-PolyPaper9_-30888"
					},
					"indices": "accessor_indices_0_m1-PolyPaper9_-30888",
					"material": "material_mat9",
					"mode": 4
				}
			]
		}
	},
	"shaders": {
		"vertex_mat9": {
			"type": 35633,
			"uri": "https://vr.google.com/shaders/w/vs.glsl"
		},
		"fragment_mat9": {
			"type": 35632,
			"uri": "https://vr.google.com/shaders/w/fs.glsl"
		}
	},
	"programs": {
		"program_mat9": {
			"attributes": [
				"a_position",
				"a_normal",
				"a_color"				
			],
			"vertexShader": "vertex_mat9",
			"fragmentShader": "fragment_mat9"
		}
	},
	"techniques": {
		"technique_mat9": {
			"program": "program_mat9",
			"extras": {"gvrss" : "https://vr.google.com/shaders/w/gvrss/paper.json"},
			"parameters": {
				"position": {
					"type": 35665,
					"semantic": "POSITION"
				},
				"normal": {
					"type": 35665,
					"semantic": "NORMAL"
				},
				"color": {
					"type": 35666,
					"semantic": "COLOR"
				},
				"modelViewMatrix": {
					"type": 35676,
					"semantic": "MODELVIEW"
				},
				"projectionMatrix": {
					"type": 35676,
					"semantic": "PROJECTION"
				},
				"normalMatrix": {
					"type": 35675,
					"semantic": "MODELVIEWINVERSETRANSPOSE"
				},
				"color": {
					"type": 35666
				},
				"roughness": {
					"type": 5126
				},
				"metallic": {
					"type": 5126
				},
				"light0Pos": {
					"type": 35666
				},
				"light0Color": {
					"type": 35666
				},
				"light1Pos": {
					"type": 35666
				},
				"light1Color": {
					"type": 35666
				}				
			},
			"attributes": {
				"a_position": "position",
				"a_normal": "normal",
				"a_color": "color"				
			},
			"uniforms": {
				"u_modelViewMatrix": "modelViewMatrix",
				"u_projectionMatrix": "projectionMatrix",
				"u_normalMatrix": "normalMatrix",
				"u_color": "color",
				"u_roughness": "roughness",
				"u_metallic": "metallic",
				"u_light0Pos": "light0Pos",
				"u_light0Color": "light0Color",
				"u_light1Pos": "light1Pos",
				"u_light1Color": "light1Color"				
			},
			"states": {
				"enable": [
					2929,
					2884
				],
				"functions": {
					"cullFace": [1029]
				}
			}
		}
	},
	"materials": {
		"material_mat9": {
			"technique": "technique_mat9",
			"values": {
				"color": [0.5450981, 0.7647059, 0.2901961, 1],
				"roughness": 0.72,
				"metallic": 0,
				"light0Pos": [-0.02, 4.11, -0.54, 0],
				"light0Color": [0.8, 0.8, 0.8, 0],
				"light1Pos": [0.02, -4.11, 0.54, 0],
				"light1Color": [0.64, 0.64, 0.64, 0]				
			},
			"name": "material_mat9"
		}
	},
	"nodes": {
		"node_MeshObject-703386240-PolyPaper9": {
			"name": "node_MeshObject-703386240-PolyPaper9",
			"meshes": [
				"mesh_m0-PolyPaper9_-31778"
			],
			"matrix": [1, 0, 0, 0, 0, 1, 0, 0, 0, 0, 1, 0, 0, 0, 0, 1]
		},
		"node_MeshObject-1901342336-PolyPaper9": {
			"name": "node_MeshObject-1901342336-PolyPaper9",
			"meshes": [
				"mesh_m1-PolyPaper9_-30888"
			],
			"matrix": [1, 0, 0, 0, 0, 1, 0, 0, 0, 0, 1, 0, 0, 0, 0, 1]
		}
	},
	"scene": "defaultScene",
	"scenes": {
		"defaultScene": {
			"nodes": [
				"node_MeshObject-703386240-PolyPaper9",
				"node_MeshObject-1901342336-PolyPaper9"
			],
			"extras": {

			}
		}
	}
}